<?xml version="1.0" encoding="UTF-8" standalone="no"?>
<svg
   xmlns:dc="http://purl.org/dc/elements/1.1/"
   xmlns:cc="http://creativecommons.org/ns#"
   xmlns:rdf="http://www.w3.org/1999/02/22-rdf-syntax-ns#"
   xmlns:svg="http://www.w3.org/2000/svg"
   xmlns="http://www.w3.org/2000/svg"
   xmlns:sodipodi="http://sodipodi.sourceforge.net/DTD/sodipodi-0.dtd"
   xmlns:inkscape="http://www.inkscape.org/namespaces/inkscape"
   viewBox="0 0 227.44386 199.72746"
   x="0px"
   y="0px"
   version="1.1"
   id="svg1243"
   sodipodi:docname="noun_programming_3469858.svg"
   width="227.44386"
   height="199.72746"
   inkscape:export-filename="/home/vorph/Téléchargements/robot.png"
   inkscape:export-xdpi="300"
   inkscape:export-ydpi="300"
   inkscape:version="1.0.1 (0767f8302a, 2020-10-17)">
  <metadata
     id="metadata1249">
    <rdf:RDF>
      <cc:Work
         rdf:about="">
        <dc:format>image/svg+xml</dc:format>
        <dc:type
           rdf:resource="http://purl.org/dc/dcmitype/StillImage" />
        <dc:title></dc:title>
      </cc:Work>
    </rdf:RDF>
  </metadata>
  <defs
     id="defs1247" />
  <sodipodi:namedview
     pagecolor="#ffffff"
     bordercolor="#666666"
     borderopacity="1"
     objecttolerance="10"
     gridtolerance="10"
     guidetolerance="10"
     inkscape:pageopacity="0"
     inkscape:pageshadow="2"
     inkscape:window-width="1920"
     inkscape:window-height="948"
     id="namedview1245"
     showgrid="false"
     fit-margin-top="0"
     fit-margin-left="0"
     fit-margin-right="0"
     fit-margin-bottom="0"
     inkscape:zoom="3.345499"
     inkscape:cx="97.73641"
     inkscape:cy="88.691556"
     inkscape:window-x="0"
     inkscape:window-y="27"
     inkscape:window-maximized="1"
     inkscape:current-layer="svg1243" />
  <g
     id="g1317"
     transform="matrix(3.7145494,0,0,3.7145494,-7.5755002,-7.9790384)">
    <g
       id="g1237">
      <circle
         cx="44"
         cy="35"
         r="1"
         id="circle1199" />
      <path
         d="M 49.29,41.71 A 1.033,1.033 0 0 1 49,41 V 33.24 L 47.38,30 H 40.62 L 39,33.24 V 41 a 1.033,1.033 0 0 1 -0.29,0.71 L 38,42.41 v 1.18 L 38.41,44 H 49.59 L 50,43.59 V 42.41 Z M 45,42 h -2 v -2 h 2 z m -1,-4 a 3,3 0 1 1 3,-3 3.009,3.009 0 0 1 -3,3 z"
         id="path1201" />
      <rect
         x="51"
         y="35"
         width="3"
         height="2"
         id="rect1203" />
      <path
         d="M 5,54 H 5.78 C 5.697,53.791 5.607,53.585 5.538,53.369 L 4.032,53.156 A 0.988,0.988 0 0 0 5,54 Z"
         id="path1205" />
      <path
         d="M 4,12 V 46.85 L 5.54,46.63 A 10.69,10.69 0 0 1 6.22,44.99 L 4.59,42.82 a 1,1 0 0 1 0.09,-1.31 l 2.83,-2.83 a 1,1 0 0 1 1.31,-0.09 l 2.17,1.63 a 10.69,10.69 0 0 1 1.64,-0.68 l 0.38,-2.68 A 1,1 0 0 1 14,36 h 4 a 1,1 0 0 1 0.99,0.86 l 0.38,2.68 a 10.69,10.69 0 0 1 1.64,0.68 l 2.17,-1.63 a 1,1 0 0 1 1.31,0.09 l 2.83,2.83 a 1,1 0 0 1 0.09,1.31 l -1.63,2.17 a 10.69,10.69 0 0 1 0.68,1.64 l 2.68,0.38 A 1,1 0 0 1 30,48 v 4 a 1,1 0 0 1 -0.86,0.99 l -2.68,0.38 C 26.39,53.59 26.3,53.79 26.22,54 H 39.18 A 3,3 0 0 1 39,53 v -7 h -1 a 1.033,1.033 0 0 1 -0.71,-0.29 l -1,-1 A 1.033,1.033 0 0 1 36,44 v -2 a 1.033,1.033 0 0 1 0.29,-0.71 L 37,40.59 V 39 H 30 A 3.009,3.009 0 0 1 27,36 V 30 A 2.968,2.968 0 0 1 27.62,28.2 3.986,3.986 0 0 1 26,25 h 2 a 2,2 0 0 0 4,0 h 2 A 3.986,3.986 0 0 1 32.38,28.2 2.968,2.968 0 0 1 33,30 v 3 h 4 a 1,1 0 0 1 0.11,-0.45 L 38.38,30 H 38 a 3.009,3.009 0 0 1 -3,-3 v -2 a 3.01,3.01 0 0 1 2,-2.82 V 18.5 a 2.5,2.5 0 0 1 5,0 V 22 h 4 v -3.5 a 2.5,2.5 0 0 1 5,0 v 3.68 A 3.01,3.01 0 0 1 53,25 v 2 a 3.009,3.009 0 0 1 -3,3 h -0.38 l 1.27,2.55 A 1,1 0 0 1 51,33 h 3 V 12 Z m 14.06,3.65 1.88,0.7 -3,8 -1.88,-0.7 z m -8.77,3.64 3,-3 1.42,1.42 -2.3,2.29 2.3,2.29 -1.42,1.42 -3,-3 a 1.008,1.008 0 0 1 0,-1.42 z M 8,28 v -2 h 4 v 2 z m 6,4 h -4 v -2 h 4 z m 0,-6 h 8 v 2 h -8 z m 10,6 h -8 v -2 h 8 z m 1.71,-11.29 -3,3 -1.42,-1.42 2.3,-2.29 -2.3,-2.29 1.42,-1.42 3,3 a 1.008,1.008 0 0 1 0,1.42 z"
         id="path1207" />
      <path
         d="m 47,47 v -1 h -6 v 1 h 2 v 2 h -2 v 2 h 2 v 2 h -2 a 1,1 0 0 0 1,1 h 4 a 1,1 0 0 0 1,-1 h -2 v -2 h 2 v -2 h -2 v -2 z"
         id="path1209" />
      <path
         d="m 25.54,48.52 a 1.008,1.008 0 0 1 -0.83,-0.74 8.409,8.409 0 0 0 -0.98,-2.35 1.015,1.015 0 0 1 0.06,-1.12 l 1.5,-2 -1.6,-1.6 -2,1.5 a 1,1 0 0 1 -1.11,0.06 8.6,8.6 0 0 0 -2.36,-0.98 1.008,1.008 0 0 1 -0.74,-0.83 L 17.13,38 h -2.26 l -0.35,2.46 a 1.008,1.008 0 0 1 -0.74,0.83 8.6,8.6 0 0 0 -2.36,0.98 1,1 0 0 1 -1.11,-0.06 l -2,-1.5 -1.6,1.6 1.5,2 a 1.015,1.015 0 0 1 0.06,1.12 8.409,8.409 0 0 0 -0.98,2.35 1.008,1.008 0 0 1 -0.83,0.74 L 4,48.87 v 2.26 l 2.46,0.35 A 1,1 0 0 1 7.29,52.23 8.444,8.444 0 0 0 7.98,54 h 3.56 a 6,6 0 1 1 8.92,0 h 3.56 a 8.444,8.444 0 0 0 0.69,-1.77 1,1 0 0 1 0.83,-0.75 L 28,51.13 V 48.87 Z M 8,51 H 6 v -2 h 2 z m 1.64,-5.95 -1.42,-1.41 1.42,-1.42 1.41,1.42 z M 17,42 h -2 v -2 h 2 z m 3.95,1.64 1.41,-1.42 1.42,1.42 -1.42,1.41 z M 26,51 h -2 v -2 h 2 z"
         id="path1211" />
      <circle
         cx="16"
         cy="50"
         r="4"
         id="circle1213" />
      <path
         d="m 54,39 v 14 a 1,1 0 0 1 -1,1 H 48.82 A 3,3 0 0 0 49,53 v -7 h 1 a 1.033,1.033 0 0 0 0.71,-0.29 l 1,-1 A 1.033,1.033 0 0 0 52,44 V 42 A 1.033,1.033 0 0 0 51.71,41.29 L 51,40.59 V 39 Z"
         id="path1215" />
      <path
         d="m 31,30 a 1,1 0 0 0 -2,0 v 3.184 a 2.809,2.809 0 0 1 2,0 z"
         id="path1217" />
      <circle
         cx="30"
         cy="36"
         r="1"
         id="circle1219" />
      <path
         d="m 37,37 v -2 h -4.184 a 2.809,2.809 0 0 1 0,2 z"
         id="path1221" />
      <path
         d="M 53,4 H 5 A 1,1 0 0 0 4,5 v 5 H 54 V 5 A 1,1 0 0 0 53,4 Z M 10,8 H 8 V 6 h 2 z m 4,0 H 12 V 6 h 2 z m 4,0 H 16 V 6 h 2 z M 46,8 H 24 V 6 h 22 z"
         id="path1223" />
      <path
         d="m 57,33.184 a 2.809,2.809 0 0 1 2,0 V 30 a 1,1 0 0 0 -2,0 z"
         id="path1225" />
      <path
         d="M 50,24 H 38 a 1,1 0 0 0 -1,1 v 2 a 1,1 0 0 0 1,1 h 12 a 1,1 0 0 0 1,-1 v -2 a 1,1 0 0 0 -1,-1 z m -9,3 h -2 v -2 h 2 z m 8,0 h -2 v -2 h 2 z"
         id="path1227" />
      <circle
         cx="58"
         cy="36"
         r="1"
         id="circle1229" />
      <path
         d="M 48.5,18 A 0.5,0.5 0 0 0 48,18.5 V 22 h 1 V 18.5 A 0.5,0.5 0 0 0 48.5,18 Z"
         id="path1231" />
      <path
         d="M 39.5,18 A 0.5,0.5 0 0 0 39,18.5 V 22 h 1 V 18.5 A 0.5,0.5 0 0 0 39.5,18 Z"
         id="path1233" />
      <path
         d="m 58,29 a 4,4 0 0 1 -4,-4 h 2 a 2,2 0 0 0 4,0 h 2 a 4,4 0 0 1 -4,4 z"
         id="path1235" />
    </g>
  </g>
</svg>
