<?xml version="1.0" encoding="UTF-8" standalone="no"?>
<svg
   xmlns:dc="http://purl.org/dc/elements/1.1/"
   xmlns:cc="http://creativecommons.org/ns#"
   xmlns:rdf="http://www.w3.org/1999/02/22-rdf-syntax-ns#"
   xmlns:svg="http://www.w3.org/2000/svg"
   xmlns="http://www.w3.org/2000/svg"
   xmlns:sodipodi="http://sodipodi.sourceforge.net/DTD/sodipodi-0.dtd"
   xmlns:inkscape="http://www.inkscape.org/namespaces/inkscape"
   viewBox="0 0 1027.9499 888.02587"
   x="0px"
   y="0px"
   version="1.1"
   id="svg1243"
   sodipodi:docname="logo_blanc.svg"
   width="1027.95"
   height="888.02588"
   inkscape:export-filename="/home/vorph/Téléchargements/robot.png"
   inkscape:export-xdpi="300"
   inkscape:export-ydpi="300"
   inkscape:version="1.0.1 (0767f8302a, 2020-10-17)">
  <metadata
     id="metadata1249">
    <rdf:RDF>
      <cc:Work
         rdf:about="">
        <dc:format>image/svg+xml</dc:format>
        <dc:type
           rdf:resource="http://purl.org/dc/dcmitype/StillImage" />
        <dc:title></dc:title>
      </cc:Work>
    </rdf:RDF>
  </metadata>
  <defs
     id="defs1247" />
  <sodipodi:namedview
     pagecolor="#ffffff"
     bordercolor="#666666"
     borderopacity="1"
     objecttolerance="10"
     gridtolerance="10"
     guidetolerance="10"
     inkscape:pageopacity="0"
     inkscape:pageshadow="2"
     inkscape:window-width="1920"
     inkscape:window-height="948"
     id="namedview1245"
     showgrid="false"
     fit-margin-top="0"
     fit-margin-left="0"
     fit-margin-right="0"
     fit-margin-bottom="0"
     inkscape:zoom="0.83637475"
     inkscape:cx="571.33066"
     inkscape:cy="438.6645"
     inkscape:window-x="0"
     inkscape:window-y="27"
     inkscape:window-maximized="1"
     inkscape:current-layer="svg1243"
     inkscape:document-rotation="0" />
  <g
     id="g867"
     transform="matrix(4.5067426,0,0,4.5067426,-10.019939,-5.9687099)">
    <circle
       cx="155.86467"
       cy="122.03019"
       r="3.7145493"
       id="circle1199"
       style="fill:#ffffff;fill-opacity:1;stroke-width:3.71455" />
    <path
       d="m 175.51464,146.95482 a 3.8371295,3.8371295 0 0 1 -1.07722,-2.63733 v -28.82491 l -6.01757,-12.03514 H 143.3095 l -6.01757,12.03514 v 28.82491 a 3.8371295,3.8371295 0 0 1 -1.07722,2.63733 l -2.63733,2.60018 v 4.38317 l 1.52296,1.52297 H 176.629 l 1.52297,-1.52297 V 149.555 Z m -15.93542,1.07722 h -7.4291 v -7.4291 h 7.4291 z m -3.71455,-14.8582 a 11.143648,11.143648 0 1 1 11.14365,-11.14365 11.177079,11.177079 0 0 1 -11.14365,11.14365 z"
       id="path1201"
       style="fill:#ffffff;fill-opacity:1;stroke-width:3.71455" />
    <rect
       x="181.86652"
       y="122.03019"
       width="11.143648"
       height="7.4290986"
       id="rect1203"
       style="fill:#ffffff;fill-opacity:1;stroke-width:3.71455" />
    <path
       d="m 10.997247,192.60663 h 2.897348 c -0.308307,-0.77634 -0.642617,-1.54154 -0.898921,-2.34388 l -5.594111,-0.7912 a 3.6699748,3.6699748 0 0 0 3.595684,3.13508 z"
       id="path1205"
       style="fill:#ffffff;fill-opacity:1;stroke-width:3.71455" />
    <path
       d="M 7.2826974,36.595554 V 166.0476 l 5.7204056,-0.8172 a 39.708533,39.708533 0 0 1 2.525894,-6.09186 l -6.0547155,-8.06057 a 3.7145494,3.7145494 0 0 1 0.3343095,-4.86606 l 10.512175,-10.51218 a 3.7145494,3.7145494 0 0 1 4.86606,-0.33431 l 8.060572,6.05472 a 39.708533,39.708533 0 0 1 6.091861,-2.5259 l 1.411528,-9.95499 a 3.7145494,3.7145494 0 0 1 3.677404,-3.19451 h 14.858198 a 3.7145494,3.7145494 0 0 1 3.677404,3.19451 l 1.411529,9.95499 a 39.708533,39.708533 0 0 1 6.091861,2.5259 l 8.060572,-6.05472 a 3.7145494,3.7145494 0 0 1 4.86606,0.33431 l 10.512174,10.51218 a 3.7145494,3.7145494 0 0 1 0.33431,4.86606 l -6.054716,8.06057 a 39.708533,39.708533 0 0 1 2.525894,6.09186 l 9.954993,1.41153 a 3.7145494,3.7145494 0 0 1 3.19451,3.6774 v 14.8582 a 3.7145494,3.7145494 0 0 1 -3.19451,3.6774 l -9.954993,1.41153 c -0.260019,0.8172 -0.594328,1.56011 -0.891492,2.34017 h 48.140565 a 11.143648,11.143648 0 0 1 -0.66862,-3.71455 v -26.00185 h -3.71455 a 3.8371295,3.8371295 0 0 1 -2.63733,-1.07722 l -3.71455,-3.71454 a 3.8371295,3.8371295 0 0 1 -1.07722,-2.63733 v -7.4291 a 3.8371295,3.8371295 0 0 1 1.07722,-2.63733 l 2.63733,-2.60019 v -5.90613 H 103.86098 A 11.177079,11.177079 0 0 1 92.717334,125.74474 v -22.2873 a 11.024783,11.024783 0 0 1 2.30302,-6.686185 14.806194,14.806194 0 0 1 -6.01757,-11.886558 h 7.429099 a 7.4290988,7.4290988 0 0 0 14.858197,0 h 7.4291 a 14.806194,14.806194 0 0 1 -6.01757,11.886558 11.024783,11.024783 0 0 1 2.30302,6.686185 v 11.14365 h 14.8582 a 3.7145494,3.7145494 0 0 1 0.4086,-1.67155 l 4.71748,-9.4721 h -1.41153 A 11.177079,11.177079 0 0 1 122.43373,92.313795 v -7.429098 a 11.180794,11.180794 0 0 1 7.4291,-10.47503 V 60.740125 a 9.2863735,9.2863735 0 0 1 18.57274,0 v 13.000923 h 14.8582 V 60.740125 a 9.286375,9.286375 0 0 1 18.57275,0 v 13.669542 a 11.180794,11.180794 0 0 1 7.4291,10.47503 v 7.429098 a 11.177079,11.177079 0 0 1 -11.14365,11.143645 h -1.41153 l 4.71748,9.4721 a 3.7145494,3.7145494 0 0 1 0.4086,1.67155 h 11.14365 V 36.595554 Z M 59.509262,50.15366 66.492615,52.753844 55.348967,82.470239 48.365614,79.870055 Z m -32.576598,13.52096 11.143648,-11.143649 5.27466,5.27466 -8.543464,8.506319 8.543464,8.506318 -5.27466,5.27466 L 26.932664,68.94928 a 3.7442658,3.7442658 0 0 1 0,-5.27466 z m -4.791769,32.353725 v -7.429099 h 14.858198 v 7.429099 z M 44.428191,110.88654 H 29.569994 v -7.4291 h 14.858197 z m 0,-22.287294 h 29.716396 v 7.429099 H 44.428191 Z M 81.573685,110.88654 H 51.85729 v -7.4291 h 29.716395 z m 6.35188,-41.93726 -11.143648,11.143648 -5.27466,-5.27466 8.543463,-8.506318 -8.543463,-8.506319 5.27466,-5.27466 11.143648,11.143649 a 3.7442658,3.7442658 0 0 1 0,5.27466 z"
       id="path1207"
       style="fill:#ffffff;fill-opacity:1;stroke-width:3.71455" />
    <path
       d="m 167.00832,166.60478 v -3.71455 h -22.28729 v 3.71455 h 7.42909 v 7.4291 h -7.42909 v 7.4291 h 7.42909 v 7.4291 h -7.42909 a 3.7145494,3.7145494 0 0 0 3.71454,3.71455 h 14.8582 a 3.7145494,3.7145494 0 0 0 3.71455,-3.71455 h -7.4291 v -7.4291 h 7.4291 v -7.4291 h -7.4291 v -7.4291 z"
       id="path1209"
       style="fill:#ffffff;fill-opacity:1;stroke-width:3.71455" />
    <path
       d="m 87.294091,172.2509 a 3.7442658,3.7442658 0 0 1 -3.083076,-2.74877 31.235646,31.235646 0 0 0 -3.640258,-8.72919 3.7702676,3.7702676 0 0 1 0.222873,-4.16029 l 5.571824,-7.4291 -5.943279,-5.94328 -7.429099,5.57182 a 3.7145494,3.7145494 0 0 1 -4.12315,0.22287 31.945125,31.945125 0 0 0 -8.766336,-3.64025 3.7442658,3.7442658 0 0 1 -2.748767,-3.08308 l -1.300092,-9.13779 h -8.394882 l -1.300092,9.13779 a 3.7442658,3.7442658 0 0 1 -2.748766,3.08308 31.945125,31.945125 0 0 0 -8.766337,3.64025 3.7145494,3.7145494 0 0 1 -4.12315,-0.22287 l -7.429099,-5.57182 -5.943279,5.94328 5.571824,7.4291 a 3.7702676,3.7702676 0 0 1 0.222873,4.16029 31.235646,31.235646 0 0 0 -3.640258,8.72919 3.7442658,3.7442658 0 0 1 -3.083076,2.74877 l -9.1377916,1.30009 v 8.39488 l 9.1377916,1.30009 a 3.7145494,3.7145494 0 0 1 3.083076,2.78592 31.365655,31.365655 0 0 0 2.563039,6.57475 H 35.2904 a 22.287296,22.287296 0 1 1 33.133781,0 h 13.223795 a 31.365655,31.365655 0 0 0 2.563039,-6.57475 3.7145494,3.7145494 0 0 1 3.083076,-2.78592 l 9.137792,-1.30009 v -8.39488 z m -65.153196,9.21208 h -7.429099 v -7.4291 h 7.429099 z m 6.091861,-22.10157 -5.27466,-5.23751 5.27466,-5.27466 5.237515,5.27466 z M 55.57184,148.03204 h -7.429099 v -7.4291 h 7.429099 z m 14.67247,6.09186 5.237514,-5.27466 5.274661,5.27466 -5.274661,5.23751 z m 18.758474,27.33908 h -7.429099 v -7.4291 h 7.429099 z"
       id="path1211"
       style="fill:#ffffff;fill-opacity:1;stroke-width:3.71455" />
    <circle
       cx="51.857288"
       cy="177.74843"
       r="14.858197"
       id="circle1213"
       style="fill:#ffffff;fill-opacity:1;stroke-width:3.71455" />
    <path
       d="m 193.01017,136.88839 v 52.00369 a 3.7145494,3.7145494 0 0 1 -3.71455,3.71455 H 173.7688 a 11.143648,11.143648 0 0 0 0.66862,-3.71455 v -26.00185 h 3.71455 a 3.8371295,3.8371295 0 0 0 2.63733,-1.07722 l 3.71455,-3.71454 a 3.8371295,3.8371295 0 0 0 1.07722,-2.63733 v -7.4291 a 3.8371295,3.8371295 0 0 0 -1.07722,-2.63733 l -2.63733,-2.60019 v -5.90613 z"
       id="path1215"
       style="fill:#ffffff;fill-opacity:1;stroke-width:3.71455" />
    <path
       d="m 107.57553,103.45744 a 3.71455,3.71455 0 0 0 -7.4291,0 v 11.82713 a 10.434169,10.434169 0 0 1 7.4291,0 z"
       id="path1217"
       style="fill:#ffffff;fill-opacity:1;stroke-width:3.71455" />
    <circle
       cx="103.86098"
       cy="125.74474"
       r="3.7145493"
       id="circle1219"
       style="fill:#ffffff;fill-opacity:1;stroke-width:3.71455" />
    <path
       d="m 129.86283,129.45929 v -7.4291 h -15.54168 a 10.434169,10.434169 0 0 1 0,7.4291 z"
       id="path1221"
       style="fill:#ffffff;fill-opacity:1;stroke-width:3.71455" />
    <path
       d="M 189.29562,6.8791592 H 10.997247 A 3.7145494,3.7145494 0 0 0 7.2826974,10.593709 V 29.166456 H 193.01017 V 10.593709 A 3.7145494,3.7145494 0 0 0 189.29562,6.8791592 Z M 29.569994,21.737357 h -7.429099 v -7.429099 h 7.429099 z m 14.858197,0 h -7.429098 v -7.429099 h 7.429098 z m 14.858198,0 H 51.85729 v -7.429099 h 7.429099 z m 104.007381,0 H 81.573685 v -7.429099 h 81.720085 z"
       id="path1223"
       style="fill:#ffffff;fill-opacity:1;stroke-width:3.71455" />
    <path
       d="m 204.15382,115.28457 a 10.434169,10.434169 0 0 1 7.42909,0 v -11.82713 a 3.7145494,3.7145494 0 0 0 -7.42909,0 z"
       id="path1225"
       style="fill:#ffffff;fill-opacity:1;stroke-width:3.71455" />
    <path
       d="m 178.15197,81.170147 h -44.57459 a 3.7145494,3.7145494 0 0 0 -3.71455,3.71455 v 7.429098 a 3.7145494,3.7145494 0 0 0 3.71455,3.71455 h 44.57459 a 3.7145494,3.7145494 0 0 0 3.71455,-3.71455 v -7.429098 a 3.7145494,3.7145494 0 0 0 -3.71455,-3.71455 z m -33.43094,11.143648 h -7.4291 v -7.429098 h 7.4291 z m 29.71639,0 h -7.4291 v -7.429098 h 7.4291 z"
       id="path1227"
       style="fill:#ffffff;fill-opacity:1;stroke-width:3.71455" />
    <circle
       cx="207.86836"
       cy="125.74474"
       r="3.7145493"
       id="circle1229"
       style="fill:#ffffff;fill-opacity:1;stroke-width:3.71455" />
    <path
       d="m 172.58015,58.882851 a 1.8572747,1.8572747 0 0 0 -1.85728,1.857274 v 13.000923 h 3.71455 V 60.740125 a 1.8572747,1.8572747 0 0 0 -1.85727,-1.857274 z"
       id="path1231"
       style="fill:#ffffff;fill-opacity:1;stroke-width:3.71455" />
    <path
       d="m 139.1492,58.882851 a 1.8572747,1.8572747 0 0 0 -1.85727,1.857274 v 13.000923 h 3.71455 V 60.740125 a 1.8572747,1.8572747 0 0 0 -1.85728,-1.857274 z"
       id="path1233"
       style="fill:#ffffff;fill-opacity:1;stroke-width:3.71455" />
    <path
       d="M 207.86836,99.742894 A 14.858198,14.858198 0 0 1 193.01017,84.884697 h 7.4291 a 7.4290988,7.4290988 0 0 0 14.85819,0 h 7.4291 a 14.858198,14.858198 0 0 1 -14.8582,14.858197 z"
       id="path1235"
       style="fill:#ffffff;fill-opacity:1;stroke-width:3.71455" />
  </g>
</svg>
